<?xml version="1.0" ?><!DOCTYPE svg  PUBLIC '-//W3C//DTD SVG 1.1//EN'  'http://www.w3.org/Graphics/SVG/1.1/DTD/svg11.dtd'><svg enable-background="new 0 0 512 512" height="512px" id="Layer_1" version="1.1" viewBox="0 0 512 512" width="512px" xml:space="preserve" xmlns="http://www.w3.org/2000/svg" xmlns:xlink="http://www.w3.org/1999/xlink"><g><path clip-rule="evenodd" d="M256.219,287.962c78.923,0,143.781-64.845,143.781-143.75   C400,64.845,335.142,0,256.219,0C176.859,0,112,64.845,112,144.211C112,223.117,176.859,287.962,256.219,287.962L256.219,287.962z" fill="#DB524D" fill-rule="evenodd"/><path clip-rule="evenodd" d="M320.172,108.84c17.234,0,31.751-14.514,31.751-32.199   s-14.517-31.747-31.751-31.747c-17.688,0-32.203,14.062-32.203,31.747S302.484,108.84,320.172,108.84L320.172,108.84z" fill="#EE706C" fill-rule="evenodd"/><path clip-rule="evenodd" d="M272.094,496.127V287.962c0-0.453,0-0.453,0-0.906   c-5.438,0.453-10.874,0.906-15.875,0.906c-5.438,0-10.875-0.453-16.32-0.906c0,0.453,0,0.453,0,0.906v208.165   c0,8.608,7.258,15.873,16.32,15.873C264.844,512,272.094,504.735,272.094,496.127L272.094,496.127z" fill="#2F4A59" fill-rule="evenodd"/><path clip-rule="evenodd" d="M239.898,287.962v31.293l32.195-32.199   c-5.438,0.453-10.874,0.906-15.875,0.906c-5.438,0-10.875-0.453-16.32-0.906C239.898,287.509,239.898,287.509,239.898,287.962   L239.898,287.962z" fill="#0F2635" fill-rule="evenodd"/><path clip-rule="evenodd" d="M273.922,252.146c-69.398,0-125.641-56.689-125.641-126.073   c0-66.665,51.703-121.088,117.016-125.62C262.126,0,259.406,0,256.219,0C176.406,0,112,64.392,112,144.211   c0,79.359,64.406,143.75,144.219,143.75c79.376,0,143.781-64.392,143.781-143.75c0-3.179,0-6.351-0.453-9.522   C395.469,200.439,340.593,252.146,273.922,252.146L273.922,252.146z" fill="#BE3530" fill-rule="evenodd"/></g></svg>