<?xml version="1.0" ?><!DOCTYPE svg  PUBLIC '-//W3C//DTD SVG 1.1//EN'  'http://www.w3.org/Graphics/SVG/1.1/DTD/svg11.dtd'><svg enable-background="new 0 0 128 128" id="Слой_1" version="1.1" viewBox="0 0 128 128" xml:space="preserve" xmlns="http://www.w3.org/2000/svg" xmlns:xlink="http://www.w3.org/1999/xlink"><g><g><path d="M82.8,45.9l-7.6-3.3C73.3,41.9,72,40,72,37.9V18.8c0-4.5-1.6-8.8-4.5-12.2c-1.9-2.2-5.2-2.2-7.1,0    C57.6,10,56,14.4,56,18.8v18.9c0,2.2-1.3,4.1-3.3,4.9l-7.3,2.8c-2,0.8-3.3,2.7-3.3,4.9v5.5h14h3.8h8.5H72h14v-5.1    C86,48.7,84.7,46.8,82.8,45.9z" fill="#98BED8"/></g><g><g><path d="M106,105c-1.8,0-3.4,0.3-5,0.9c-0.1-5.5-4.5-9.9-10-9.9c-0.6,0-1.2,0.1-1.8,0.2C91,93.2,92,89.7,92,86     c0-11-9-20-20-20c-1.8,0-3.4,0.2-5.1,0.7C65.7,66.2,64.4,66,63,66c-6.3,0-11.5,4.9-12,11.1c-0.7-0.1-1.4-0.1-2-0.1     c-8.8,0-16,6.7-16.9,15.2c-1-0.1-2-0.2-3.1-0.2c-12.2,0-22,9.8-22,22c0,1.4,0.1,2.7,0.4,4h113.5C119.9,110.7,113.6,105,106,105z" fill="#FFFFFF"/></g></g><g><g><path d="M7.4,121c-1.4,0-2.7-1-2.9-2.5C4.1,117,4,115.5,4,114c0-14,11.5-25.3,25.6-25c2.2-8.7,10.1-15,19.4-15     c1.7,0,3,1.3,3,3s-1.3,3-3,3c-7.2,0-13.2,5.4-13.9,12.5c-0.1,0.8-0.5,1.6-1.1,2.1c-0.6,0.5-1.5,0.7-2.3,0.6     C30.8,95.1,29.9,95,29,95c-10.5,0-19,8.5-19,19c0,1.1,0.1,2.3,0.3,3.5c0.3,1.6-0.8,3.2-2.4,3.5C7.7,121,7.5,121,7.4,121z" fill="#454B54"/></g><g><path d="M120.8,121c-1.5,0-2.8-1.1-3-2.6c-0.8-5.9-5.9-10.4-11.9-10.4c-1.3,0-2.7,0.2-4,0.7     c-0.9,0.3-1.9,0.2-2.7-0.4s-1.3-1.5-1.3-2.4c0-3.8-3.2-6.9-7-6.9c-0.4,0-0.8,0-1.3,0.1c-1.2,0.2-2.3-0.3-3-1.2s-0.7-2.2-0.1-3.2     C88.2,92,89,89,89,86c0-7.1-4.3-13.3-10.8-15.9c-1.5-0.6-2.3-2.3-1.7-3.9c0.6-1.5,2.3-2.3,3.9-1.7C89.2,68,95,76.4,95,86     c0,2.5-0.4,5-1.2,7.3c4.6,1,8.3,4.5,9.6,8.9c0.9-0.1,1.7-0.2,2.6-0.2c9,0,16.6,6.7,17.8,15.6c0.2,1.6-0.9,3.2-2.6,3.4     C121.1,121,121,121,120.8,121z" fill="#454B54"/></g></g><g><polyline fill="#FFFFFF" points="57,91 57,57 71,57 71,91   "/></g><g><path d="M71,94c-1.7,0-3-1.3-3-3V57c0-1.7,1.3-3,3-3s3,1.3,3,3v34C74,92.7,72.7,94,71,94z" fill="#454B54"/></g><g><path d="M57,94c-1.7,0-3-1.3-3-3V57c0-1.7,1.3-3,3-3s3,1.3,3,3v34C60,92.7,58.7,94,57,94z" fill="#454B54"/></g><g><path d="M57,109c-0.8,0-1.6-0.3-2.1-0.9c-0.6-0.6-0.9-1.3-0.9-2.1s0.3-1.6,0.9-2.1c1.1-1.1,3.1-1.1,4.2,0    c0.6,0.6,0.9,1.3,0.9,2.1s-0.3,1.6-0.9,2.1C58.6,108.7,57.8,109,57,109z" fill="#454B54"/></g><g><path d="M86,58.9H42c-1.7,0-3-1.3-3-3v-5.5c0-3.4,2.1-6.4,5.2-7.7l7.3-2.8c0.9-0.3,1.4-1.2,1.4-2.1V18.8    c0-5.2,1.9-10.2,5.2-14.1C59.6,3,61.8,2,64,2c2.2,0,4.4,1,5.8,2.7c3.4,3.9,5.2,9,5.2,14.1v19.1c0,0.9,0.5,1.7,1.4,2.1l7.6,3.3    c3,1.3,5,4.3,5,7.6v5.1C89,57.5,87.7,58.9,86,58.9z M45,52.9h38v-2.1c0-0.9-0.5-1.7-1.4-2.1L74,45.4c-3-1.3-5-4.3-5-7.6V18.8    c0-3.7-1.3-7.4-3.8-10.2C64.8,8.1,64.3,8,64,8s-0.8,0.1-1.3,0.6c-2.4,2.9-3.8,6.5-3.8,10.2v18.9c0,3.4-2.1,6.4-5.2,7.7l-7.3,2.8    c-0.9,0.3-1.4,1.2-1.4,2.1V52.9z" fill="#454B54"/></g></g></svg>