<?xml version="1.0" ?><!DOCTYPE svg  PUBLIC '-//W3C//DTD SVG 1.1//EN'  'http://www.w3.org/Graphics/SVG/1.1/DTD/svg11.dtd'><svg enable-background="new 0 0 128 128" id="Слой_1" version="1.1" viewBox="0 0 128 128" xml:space="preserve" xmlns="http://www.w3.org/2000/svg" xmlns:xlink="http://www.w3.org/1999/xlink"><g><g><g><circle cx="64" cy="64" fill="#EDEBEA" r="62"/></g></g></g><g><g><g><g><path d="M63.7,46.5v-20c0-5.5-4.5-10-10-10h0c-5.5,0-10,4.5-10,10v30c0,11,9,20,20,20h10c11,0,20-9,20-20v-10      H63.7z" fill="#FFFFFF"/></g></g><g><g><path d="M73.7,79.5h-10c-12.7,0-23-10.3-23-23v-30c0-7.2,5.8-13,13-13s13,5.8,13,13v17h27c1.7,0,3,1.3,3,3v10      C96.7,69.2,86.4,79.5,73.7,79.5z M53.7,19.5c-3.9,0-7,3.1-7,7v30c0,9.4,7.6,17,17,17h10c9.4,0,17-7.6,17-17v-7h-27      c-1.7,0-3-1.3-3-3v-20C60.7,22.6,57.5,19.5,53.7,19.5z" fill="#454B54"/></g></g><g><g><path d="M83.7,66.5L83.7,66.5c-11,0-20-9-20-20v0h40v0C103.7,57.5,94.7,66.5,83.7,66.5z" fill="#7CA5C6"/></g></g><g opacity="0.2"><g><g><path d="M103.7,46.5h-10v10c0,2.9-0.6,5.7-1.8,8.2C98.8,61.6,103.7,54.6,103.7,46.5z" fill="#0C0F13"/></g></g></g><g><g><path d="M83.7,69.5c-12.7,0-23-10.3-23-23c0-1.7,1.3-3,3-3h40c1.7,0,3,1.3,3,3C106.7,59.2,96.4,69.5,83.7,69.5z       M66.9,49.5c1.4,7.9,8.4,14,16.7,14s15.3-6.1,16.7-14H66.9z" fill="#454B54"/></g></g><g><g><path d="M28.7,35.5c-1.7,0-3-1.3-3-3v-1c0-1.7,1.3-3,3-3h15c1.7,0,3,1.3,3,3s-1.3,3-3,3H30.9      C30.4,35.1,29.6,35.5,28.7,35.5z" fill="#454B54"/></g></g><g><g><g><path d="M53.7,30.5c-0.8,0-1.6-0.3-2.1-0.9c-0.6-0.5-0.9-1.3-0.9-2.1h6c0,0.8-0.3,1.6-0.9,2.1       C55.2,30.1,54.5,30.5,53.7,30.5z" fill="#454B54"/></g></g></g><g><g><path d="M63.7,94c-1.7,0-3-1.3-3-3V76.5c0-1.7,1.3-3,3-3s3,1.3,3,3V91C66.7,92.7,65.3,94,63.7,94z" fill="#454B54"/></g></g><g><g><path d="M37.7,122l17.9-24.8c4-5.5,12.2-5.5,16.2,0L89.7,122" fill="#CE938E"/></g></g><g><g><path d="M89.7,125c-0.9,0-1.8-0.4-2.4-1.2L69.3,99c-1.3-1.8-3.4-2.9-5.7-2.9S59.3,97.1,58,99l-17.9,24.8      c-1,1.3-2.8,1.6-4.2,0.7c-1.3-1-1.6-2.8-0.7-4.2l17.9-24.8c2.5-3.4,6.3-5.4,10.5-5.4s8.1,2,10.5,5.4l17.9,24.8      c1,1.3,0.7,3.2-0.7,4.2C90.9,124.8,90.3,125,89.7,125z" fill="#454B54"/></g></g><g><g><g><g><path d="M73.9,126c-0.1,0-0.1,0-0.2,0c-3.7,0-7.2-1.3-10-3.5c-2.8,2.1-6.2,3.3-9.8,3.3c-3.7,0-7.1-1.2-9.9-3.3        c-2.8,2.2-6.2,3.3-9.9,3.3c-3.7,0-7.1-1.2-9.9-3.3c-2.8,2.2-6.2,3.3-9.9,3.3c-4.7,0-9.2-2-12.2-5.5c-1.1-1.3-0.9-3.2,0.3-4.2        c1.3-1.1,3.2-0.9,4.2,0.3c1.8,2.2,4.6,3.4,7.6,3.4s5.8-1.2,7.6-3.4c0.6-0.7,1.4-1.1,2.3-1.1s1.7,0.4,2.3,1.1        c1.8,2.2,4.6,3.4,7.6,3.4c3,0,5.8-1.2,7.6-3.4c0.6-0.7,1.4-1.1,2.3-1.1s1.7,0.4,2.3,1.1c1.8,2.2,4.6,3.4,7.6,3.4        c3,0,5.8-1.2,7.6-3.4c0.6-0.7,1.4-1.1,2.3-1.1c0,0,0,0,0,0c0.9,0,1.7,0.4,2.3,1.1l0.2,0.2c1.8,2.1,4.6,3.4,7.5,3.4        c0,0,0.1,0,0.1,0c2.9,0,5.6-1.2,7.5-3.3l0.4-0.4c0.6-0.7,1.4-1,2.3-1c0.9,0,1.7,0.4,2.3,1.1c1.8,2.2,4.6,3.4,7.6,3.4        c1.7,0,3,1.3,3,3s-1.3,3-3,3c-3.6,0-7.1-1.2-9.8-3.3C81.2,124.7,77.6,126,73.9,126z" fill="#454B54"/></g></g><g><g><path d="M123.5,121.3c-1.7,0-3-1.3-3-3s1.3-3,3-3h0c1.7,0,3,1.3,3,3S125.2,121.3,123.5,121.3z" fill="#454B54"/></g></g><g><g><path d="M93.8,125.8c-4.7,0-9.2-2-12.2-5.5c-1.1-1.3-0.9-3.2,0.3-4.2c1.3-1.1,3.2-0.9,4.2,0.3        c1.8,2.2,4.6,3.4,7.6,3.4c3,0,5.8-1.2,7.6-3.4c0.6-0.7,1.4-1.1,2.3-1.1l0,0c0.9,0,1.7,0.4,2.3,1.1c1.8,2.1,4.5,3.3,7.3,3.4        c1.7,0,3,1.4,2.9,3.1c0,1.6-1.4,2.9-3,2.9c0,0-0.1,0-0.1,0c-3.5-0.1-6.8-1.3-9.5-3.3C101,124.6,97.5,125.8,93.8,125.8z" fill="#454B54"/></g></g></g></g></g></g></svg>